<?xml version="1.0" encoding="UTF-8" standalone="yes"?>
<!DOCTYPE svg PUBLIC "-//W3C//DTD SVG 1.1//EN" "http://www.w3.org/Graphics/SVG/1.1/DTD/svg11.dtd">

<svg width="75" height="49" viewBox="0 0 75 49" xmlns="http://www.w3.org/2000/svg" xmlns:xlink="http://www.w3.org/1999/xlink" version="1.1" baseProfile="full">
    <g transform="scale(1,-1) translate(0,-49)">
        <path d="M 2.083580 14.723948 L 2.083580 1.699204 L 1.671492 2.111292 L 14.973358 2.111292 L 14.561270 1.699204 L 14.561270 14.723948 L 14.973358 14.311860 L 1.671492 14.311860 L 2.083580 14.723948 Z M 1.259404 14.723948 C 1.259404 14.951538 1.443902 15.136036 1.671492 15.136036 L 14.973358 15.136036 C 15.200948 15.136036 15.385446 14.951538 15.385446 14.723948 L 15.385446 1.699204 C 15.385446 1.471614 15.200948 1.287116 14.973358 1.287116 L 1.671492 1.287116 C 1.443902 1.287116 1.259404 1.471614 1.259404 1.699204 L 1.259404 14.723948 Z" transform="scale(1.000000,1.000000) translate(10.000000,22.000000)" opacity="1.000000"></path>
        <path d="M 13.870400 10.512200 L 62.366800 10.096600 L 62.366800 1.644300 L 74.708400 1.644300 L 63.198200 13.006300 L 63.198200 20.073000 L 65.830900 20.073000 L 65.830900 23.952700 L 69.987700 26.585300 L 61.535500 26.585300 L 61.535500 23.121300 L 58.764200 23.121300 L 58.764200 27.832400 L 63.198200 34.344800 L 47.817900 34.344800 L 52.390400 27.832400 L 52.390400 23.121300 L 41.721200 23.121300 L 41.721200 26.585300 L 41.554500 28.185300 L 41.011100 29.408500 L 40.577800 29.858600 L 40.026000 30.190100 L 39.347600 30.395000 L 38.534300 30.465000 L 36.962500 30.229100 L 36.386100 29.931600 L 35.936300 29.512400 L 35.603400 28.969800 L 35.377700 28.302200 L 35.208900 26.585300 L 35.208900 23.121300 L 28.557900 23.121300 L 28.557900 30.465000 L 1.399900 30.465000 L 1.399900 28.386600 L 5.418200 28.386600 L 6.680400 28.181000 L 7.825700 27.572600 L 8.285500 27.121400 L 8.633300 26.574500 L 8.841400 25.933400 L 8.882200 25.199700 L 9.020800 1.644300 L 13.870400 1.644300 Z M 11.792000 13.837700 L 11.792000 26.862500 L 25.093900 26.862500 L 25.093900 13.837700 Z" transform="scale(1.000000,1.000000) translate(0.000000,10.000000)" fill="#fffefe" opacity="1.000000"></path>
        <path d="M 8.107137 15.337401 C 8.204549 14.574339 8.237020 14.022336 8.237020 12.723506 L 8.237020 5.920884 C 8.237020 4.946762 7.766194 4.459701 6.824543 4.459701 C 6.418658 4.459701 6.029009 4.573348 5.801714 4.751937 C 5.428300 5.044174 5.233476 5.401352 5.038651 6.196886 L 1.255809 4.930527 C 1.661694 3.842756 1.921460 3.371931 2.408521 2.819928 C 3.431349 1.683452 4.892533 1.131449 6.873249 1.131449 C 10.233971 1.131449 12.230922 2.933576 12.230922 5.953355 L 12.230922 12.739741 C 12.230922 14.071042 12.263393 14.606809 12.360805 15.337401 Z M 25.819930 4.086287 C 25.819930 2.754986 25.787459 2.300396 25.690047 1.472392 L 29.456654 1.472392 C 29.359242 2.154278 29.326771 2.803693 29.326771 4.086287 L 29.326771 12.723506 C 29.326771 13.811276 29.359242 14.558103 29.456654 15.337401 L 24.342511 15.337401 C 24.293805 14.817869 24.212628 14.460691 23.920391 13.486569 C 23.855450 13.259273 23.855450 13.259273 23.725567 12.820918 L 21.842263 6.489122 L 19.942725 12.820918 C 19.471899 14.363279 19.390722 14.704222 19.325780 15.337401 L 14.211638 15.337401 C 14.292815 14.623045 14.341521 13.681393 14.341521 12.723506 L 14.341521 4.086287 C 14.341521 2.982282 14.309050 2.267925 14.211638 1.472392 L 17.978244 1.472392 C 17.880832 2.202984 17.848361 2.949811 17.848361 4.086287 L 17.848361 7.414539 C 17.848361 7.755482 17.832126 8.275014 17.718478 10.223258 C 18.108127 8.664663 18.319187 7.852894 18.335423 7.787952 L 19.455663 4.005110 C 19.618017 3.436872 19.634253 3.371931 19.780371 2.884869 C 20.023902 2.105571 20.072608 1.926982 20.137549 1.472392 L 23.530742 1.472392 C 23.595684 1.943218 23.676861 2.251690 23.952862 3.177106 C 24.050274 3.485578 24.050274 3.485578 24.212628 4.005110 L 25.316633 7.658069 C 25.381575 7.869129 25.495223 8.356190 25.673812 9.086782 C 25.722518 9.346548 25.819930 9.719962 25.949813 10.223258 C 25.868636 8.453603 25.836165 7.787952 25.836165 7.398303 Z M 33.937617 15.337401 C 32.752435 15.337401 32.021843 15.353637 31.307486 15.386107 C 31.404899 14.606809 31.437369 13.941159 31.437369 12.820918 L 31.437369 4.118758 C 31.437369 2.787457 31.404899 2.235454 31.307486 1.472392 L 35.479978 1.472392 C 35.382565 2.267925 35.350095 2.949811 35.350095 4.134993 L 35.350095 6.391710 L 36.519041 6.391710 C 36.957397 6.391710 37.282104 6.310533 37.558105 6.131944 C 37.996460 5.839707 38.110108 5.628648 38.710817 3.972639 C 39.165407 2.706280 39.327761 2.170513 39.457644 1.472392 L 43.971078 1.472392 C 43.548958 2.381573 43.240486 3.095929 42.850837 4.053816 C 41.957892 6.261827 41.957892 6.261827 41.828009 6.505358 C 41.405889 7.349597 41.064946 7.641834 40.253177 7.885365 C 40.967534 8.145131 41.276006 8.307484 41.633184 8.632192 C 42.315070 9.249136 42.672248 10.223258 42.672248 11.440911 C 42.672248 12.609858 42.331305 13.535275 41.681890 14.184690 C 40.918828 14.947752 39.766116 15.337401 38.369874 15.337401 Z M 35.350095 9.736197 L 35.350095 12.074091 L 37.395752 12.074091 C 38.175050 12.074091 38.613405 11.668207 38.613405 10.937615 C 38.613405 10.190788 38.158814 9.736197 37.395752 9.736197 Z M 45.156260 15.337401 C 45.269908 14.606809 45.286143 14.119748 45.286143 12.739741 L 45.286143 4.070052 C 45.286143 2.868634 45.253673 2.170513 45.156260 1.472392 L 49.409928 1.472392 C 49.312516 2.186748 49.280045 2.852399 49.280045 4.070052 L 49.280045 12.739741 C 49.280045 14.054807 49.312516 14.623045 49.409928 15.337401 Z" transform="scale(1.000000,1.000000) translate(10.000000,2.000000)" fill="#fffefe" opacity="1.000000"></path>
        <path d="M 1.749908 1.699204 C 3.274080 4.728834 1.749908 10.788095 6.322425 10.788095 C 10.894941 10.788095 11.449186 6.050741 10.340697 1.699204 C 9.647891 3.167234 8.955086 3.167234 6.322425 3.167234 C 4.721626 3.167234 3.663139 3.167234 1.749908 1.699204 Z" transform="scale(1.000000,1.000000) translate(12.000000,22.000000)" fill="#000000" opacity="1.000000"></path>
        <path d="M 5.443008 3.525810 C 5.443008 4.636159 4.638894 5.536274 3.646969 5.536274 C 2.655044 5.536274 1.850930 4.636159 1.850930 3.525810 C 1.850930 2.415461 2.655044 1.515346 3.646969 1.515346 C 4.638894 1.515346 5.443008 2.415461 5.443008 3.525810 Z" transform="scale(1.000000,1.000000) translate(13.000000,31.000000)" fill="#fb0106" opacity="1.000000"></path>
    </g>
</svg>